HIERARCHY
ROOT Hips
{
	OFFSET 0.000000 0.000000 0.000000
	CHANNELS 6 Xposition Yposition Zposition Zrotation Yrotation Xrotation 
	JOINT LHipJoint
	{
		OFFSET 0.000000 0.000000 0.000000
		CHANNELS 3 Zrotation Yrotation Xrotation
		JOINT LeftUpLeg
		{
			OFFSET 1.363060 -1.794630 0.839290
			CHANNELS 3 Zrotation Yrotation Xrotation
			JOINT LeftLeg
			{
				OFFSET 2.448110 -6.726130 0.000000
				CHANNELS 3 Zrotation Yrotation Xrotation
				JOINT LeftFoot
				{
					OFFSET 2.562200 -7.039590 0.000000
					CHANNELS 3 Zrotation Yrotation Xrotation
					JOINT LeftToeBase
					{
						OFFSET 0.157640 -0.433110 2.322550
						CHANNELS 3 Zrotation Yrotation Xrotation
						End Site
						{
							OFFSET 0.000000 0.000000 0.000000
						}
					}
				}
			}
		}
	}
	JOINT RHipJoint
	{
		OFFSET 0.000000 0.000000 0.000000
		CHANNELS 3 Zrotation Yrotation Xrotation
		JOINT RightUpLeg
		{
			OFFSET -1.305520 -1.794630 0.839290
			CHANNELS 3 Zrotation Yrotation Xrotation
			JOINT RightLeg
			{
				OFFSET -2.542530 -6.985550 0.000000
				CHANNELS 3 Zrotation Yrotation Xrotation
				JOINT RightFoot
				{
					OFFSET -2.568260 -7.056230 0.000000
					CHANNELS 3 Zrotation Yrotation Xrotation
					JOINT RightToeBase
					{
						OFFSET -0.164730 -0.452590 2.363150
						CHANNELS 3 Zrotation Yrotation Xrotation
						End Site
						{
							OFFSET 0.000000 0.000000 0.000000
						}
					}
				}
			}
		}
	}
}
MOTION
Frames: 19
Frame Time: 0.008333
-5.469748 14.450488 -0.482461 176.368970 -85.711079 -106.449682 -9.243643 -0.498094 2.166879 -12.950531 -7.796463 -111.826176 -3.532868 7.452393 57.549697 2.246750 3.262632 -19.496241 -0.739000 -0.000000 -41.239700 8.363405 0.840117 4.467924 5.446348 10.336368 -113.340143 2.530685 -7.577059 59.557215 -1.496738 -0.441090 -17.162247 0.166800 -0.000000 -59.083200
-5.464744 14.440021 -0.502730 176.122053 -85.648395 -106.101621 -9.260676 -0.496837 2.170096 -12.936230 -7.756697 -112.018543 -3.531765 7.487057 57.613453 2.240503 3.266159 -19.417423 -0.728100 -0.000001 -41.489400 8.351774 0.842039 4.489420 5.357644 10.459447 -113.538952 2.505979 -7.578165 59.695646 -1.510158 -0.456177 -17.256653 0.174700 0.000000 -58.895600
-5.460132 14.430898 -0.522875 176.071666 -85.586113 -105.957423 -9.280252 -0.497039 2.178135 -12.901558 -7.702624 -112.201704 -3.526651 7.517798 57.664515 2.240442 3.300656 -19.323846 -0.717400 -0.000000 -41.737700 8.337900 0.839765 4.509365 5.295761 10.594145 -113.711182 2.488287 -7.577167 59.808656 -1.518969 -0.454969 -17.343799 0.181700 -0.000001 -58.707400
-5.456003 14.423235 -0.543041 176.189612 -85.523624 -105.990359 -9.301216 -0.498720 2.190461 -12.847715 -7.635400 -112.370487 -3.518015 7.543798 57.702414 2.247330 3.365919 -19.224088 -0.707900 -0.000000 -41.940099 8.322432 0.833829 4.527830 5.258201 10.738855 -113.854190 2.476978 -7.573650 59.896304 -1.523506 -0.438784 -17.424022 0.187900 0.000000 -58.526600
-5.452258 14.417032 -0.563048 176.508710 -85.462079 -106.234302 -9.324661 -0.502986 2.207705 -12.766955 -7.551819 -112.525669 -3.505351 7.564730 57.728076 2.261362 3.460219 -19.124963 -0.700200 0.000000 -42.096501 8.303569 0.824364 4.543666 5.247194 10.896836 -113.964812 2.471852 -7.567090 59.959407 -1.524576 -0.410390 -17.498202 0.193300 0.000000 -58.347900
-5.449386 14.412418 -0.582911 177.015731 -85.401422 -106.677629 -9.350870 -0.509035 2.231659 -12.659352 -7.452230 -112.662272 -3.489953 7.579736 57.738286 2.281722 3.576390 -19.035213 -0.694700 0.000000 -42.196700 8.281543 0.810801 4.558472 5.262736 11.067462 -114.039343 2.472987 -7.556921 59.996303 -1.522652 -0.370885 -17.567742 0.198100 0.000001 -58.172200
-5.447188 14.409467 -0.602684 177.660454 -85.340890 -107.276031 -9.378651 -0.517307 2.260934 -12.526274 -7.337824 -112.774205 -3.472257 7.588452 57.734761 2.307388 3.707571 -18.963071 -0.692100 0.000000 -42.232900 8.256325 0.794901 4.571200 5.300347 11.245919 -114.075884 2.478524 -7.543188 60.012869 -1.518539 -0.323300 -17.634561 0.202600 0.000000 -58.006001
-5.445899 14.407996 -0.622142 178.463054 -85.281247 -108.050816 -9.409342 -0.528056 2.296765 -12.362893 -7.205833 -112.860200 -3.452157 7.590870 57.719212 2.336862 3.845910 -18.913685 -0.692600 0.000000 -42.226700 8.226607 0.776771 4.581669 5.361918 11.433314 -114.070357 2.487945 -7.525513 60.011990 -1.513319 -0.270823 -17.701455 0.207100 0.000000 -57.843700
-5.445456 14.407514 -0.641733 179.261382 -85.218103 -108.841439 -9.439662 -0.538832 2.340397 -12.180106 -7.070343 -112.919233 -3.430619 7.586954 57.694752 2.369707 3.988331 -18.888928 -0.696399 -0.000000 -42.196400 8.196792 0.758058 4.595579 5.426543 11.618420 -114.039156 2.497200 -7.505141 60.005748 -1.507934 -0.216913 -17.770376 0.211800 0.000000 -57.689700
-5.445710 14.409208 -0.660530 -179.709003 -85.158590 -109.904933 -9.473794 -0.555679 2.385667 -11.960084 -6.899848 -112.932030 -3.404244 7.576634 57.665012 2.402695 4.125887 -18.887975 -0.703100 0.000000 -42.174600 8.157078 0.740288 4.598490 5.529262 11.810942 -113.933831 2.508918 -7.479192 59.988414 -1.503380 -0.164624 -17.845781 0.217500 0.000000 -57.540200
-5.446736 14.412441 -0.679141 -178.687332 -85.097377 -111.002004 -9.507425 -0.575480 2.433277 -11.720083 -6.714822 -112.893454 -3.373619 7.559498 57.633207 2.436565 4.263086 -18.905449 -0.712500 -0.000000 -42.185800 8.113571 0.725709 4.596920 5.643657 11.992248 -113.773852 2.518172 -7.449528 59.975097 -1.500416 -0.116766 -17.930378 0.224400 -0.000000 -57.402699
-5.448512 14.417229 -0.697442 -177.619086 -85.035911 -112.196000 -9.541183 -0.599263 2.482487 -11.455852 -6.507688 -112.800418 -3.335891 7.536425 57.607712 2.471210 4.404111 -18.933093 -0.723900 -0.000001 -42.270800 8.064443 0.715088 4.589098 5.775035 12.165090 -113.549202 2.523894 -7.415584 59.971271 -1.500427 -0.077463 -18.028497 0.233100 -0.000000 -57.264601
-5.450868 14.423525 -0.715864 -176.730434 -84.971929 -113.267968 -9.571186 -0.626261 2.530948 -11.184218 -6.295828 -112.638452 -3.290442 7.506205 57.591085 2.508782 4.561360 -18.962408 -0.737301 -0.000000 -42.426600 8.013509 0.710715 4.577051 5.904341 12.308511 -113.267174 2.522119 -7.378728 59.988165 -1.503684 -0.048563 -18.141621 0.243700 0.000000 -57.145200
-5.453957 14.431293 -0.734121 -175.891707 -84.907561 -114.352578 -9.598975 -0.657682 2.578347 -10.897096 -6.067754 -112.409369 -3.233708 7.470230 57.593457 2.550696 4.745255 -18.984693 -0.752100 0.000000 -42.678099 7.958361 0.712478 4.558866 6.041685 12.432009 -112.915636 2.512906 -7.337834 60.027497 -1.511712 -0.034538 -18.273589 0.256900 0.000000 -57.026900
-5.457559 14.440723 -0.752761 -175.225210 -84.840826 -115.336244 -9.621498 -0.693777 2.621170 -10.608194 -5.830257 -112.100565 -3.165176 7.428228 57.618219 2.599288 4.968450 -18.994015 -0.768600 -0.000000 -42.998800 7.901179 0.721873 4.535555 6.174253 12.525475 -112.494357 2.493143 -7.292691 60.095338 -1.525464 -0.039737 -18.425400 0.273001 -0.000000 -56.922600
-5.461996 14.452327 -0.772036 -174.739285 -84.771004 -116.218767 -9.637738 -0.734694 2.657168 -10.325542 -5.581207 -111.697354 -3.084859 7.379515 57.663888 2.656359 5.240548 -18.986754 -0.787000 0.000001 -43.369700 7.842543 0.738627 4.507078 6.302833 12.587462 -111.990043 2.462656 -7.241794 60.187905 -1.545474 -0.066160 -18.598299 0.292300 0.000000 -56.829601
-5.467019 14.465171 -0.791880 -174.384954 -84.699314 -117.041881 -9.649024 -0.780714 2.687114 -10.043431 -5.322487 -111.217171 -2.990716 7.326688 57.745420 2.724270 5.570065 -18.967013 -0.808500 0.000000 -43.755300 7.781835 0.763037 4.474168 6.423955 12.624946 -111.415925 2.420036 -7.186155 60.315666 -1.573472 -0.119731 -18.795331 0.315500 -0.000000 -56.744300
-5.472998 14.479734 -0.812543 -174.212203 -84.625009 -117.760944 -9.654725 -0.831234 2.710069 -9.771111 -5.057698 -110.646342 -2.885045 7.268405 57.855676 2.803922 5.959014 -18.940416 -0.834100 -0.000000 -44.115700 7.720315 0.794267 4.437661 6.536451 12.633524 -110.763884 2.365795 -7.124926 60.472934 -1.609185 -0.200387 -19.015156 0.343000 0.000000 -56.676500
-5.480104 14.496261 -0.833827 -174.084038 -84.547476 -118.515465 -9.655689 -0.885920 2.724682 -9.505988 -4.774801 -109.982984 -2.769513 7.205644 57.994027 2.894166 6.400186 -18.917923 -0.865401 -0.000000 -44.420400 7.657179 0.832142 4.395886 6.650891 12.624651 -110.021838 2.301789 -7.056728 60.653418 -1.652979 -0.309452 -19.258484 0.375100 0.000000 -56.615500
